<?xml version="1.0" encoding="utf-8"?>
<!-- Generator: Adobe Illustrator 23.0.2, SVG Export Plug-In . SVG Version: 6.00 Build 0)  -->
<svg version="1.1" id="Layer_1" xmlns="http://www.w3.org/2000/svg" xmlns:xlink="http://www.w3.org/1999/xlink" x="0px" y="0px"
	 viewBox="0 0 15 15" style="enable-background:new 0 0 15 15;" xml:space="preserve">
<style type="text/css">
	.st0{fill:#CCCCCC;}
	.st1{fill:#FFFFFF;}
	.st2{fill:#FFBD2E;}
	.st3{fill:#FFC548;}
	.st4{display:none;}
	.st5{display:inline;fill:#DEE1E6;}
	.st6{display:inline;fill:#FF6059;}
	.st7{display:inline;fill:#FFBD2E;}
	.st8{display:inline;fill:#28C941;}
	.st9{display:inline;fill:#FFFFFF;}
	.st10{display:inline;fill:#CCCCCC;}
	.st11{fill:#DEE1E6;}
	.st12{fill:#FF6059;}
	.st13{fill:#28C941;}
</style>
<path class="st0" d="M8.04,5.79H0.5C0.22,5.79,0,5.56,0,5.29V0.5C0,0.22,0.22,0,0.5,0h7.54c0.27,0,0.5,0.22,0.5,0.5v4.79
	C8.53,5.56,8.31,5.79,8.04,5.79z"/>
<path class="st1" d="M7.21,5.23H1.32c-0.27,0-0.5-0.22-0.5-0.5V1.06c0-0.27,0.22-0.5,0.5-0.5h5.89c0.27,0,0.5,0.22,0.5,0.5v3.68
	C7.71,5.01,7.49,5.23,7.21,5.23z"/>
<rect x="1.42" y="1.22" class="st2" width="2.02" height="2.52"/>
<rect x="5.27" y="1.22" class="st2" width="2.02" height="0.61"/>
<rect x="5.27" y="2.18" class="st2" width="2.02" height="0.61"/>
<rect x="5.27" y="3.14" class="st2" width="2.02" height="0.61"/>
<g>
	<line class="st2" x1="3.77" y1="2.48" x2="4.96" y2="2.48"/>
	<g>
		<g>
			<polygon class="st3" points="3.77,2.6 4.34,2.6 4.39,2.6 4.39,2.81 4.96,2.48 4.39,2.15 4.39,2.36 4.34,2.36 3.77,2.36 			"/>
		</g>
	</g>
</g>
<g class="st4">
	<path class="st5" d="M14.5,15h-14C0.22,15,0,14.78,0,14.5v-14C0,0.22,0.22,0,0.5,0h14C14.78,0,15,0.22,15,0.5v14
		C15,14.78,14.78,15,14.5,15z"/>
	<circle class="st6" cx="1.75" cy="1.5" r="0.75"/>
	<circle class="st7" cx="3.87" cy="1.5" r="0.75"/>
	<circle class="st8" cx="5.99" cy="1.5" r="0.75"/>
	<rect x="1" y="2.93" class="st9" width="13" height="1.5"/>
	<rect x="1" y="5.11" class="st9" width="13" height="8.86"/>
	<rect x="1.57" y="5.76" class="st10" width="11.54" height="3.3"/>
	<rect x="1.57" y="9.7" class="st10" width="3.3" height="3.69"/>
	<rect x="5.48" y="9.7" class="st10" width="7.63" height="0.63"/>
	<rect x="5.48" y="10.72" class="st10" width="7.63" height="0.63"/>
	<rect x="5.48" y="11.74" class="st10" width="7.63" height="0.63"/>
	<rect x="5.48" y="12.76" class="st10" width="7.63" height="0.63"/>
</g>
<g>
	<g>
		<rect x="-16.63" y="-8.28" class="st1" width="9.83" height="12.63"/>
		<path class="st11" d="M-6.95-8.11v12.3h-9.51v-12.3H-6.95 M-6.62-8.44h-0.33h-9.51h-0.32v0.33v12.3v0.33h0.33h9.51h0.33V4.19
			v-12.3v-0.33H-6.62z"/>
	</g>
	<polygon class="st2" points="-6.95,0.02 -6.95,-2.38 -13.2,4.19 -10.92,4.19 	"/>
	<rect x="-15.26" y="-6.97" class="st2" width="2.74" height="0.76"/>
	<rect x="-15.26" y="-5.31" class="st0" width="7.11" height="0.5"/>
	<rect x="-15.26" y="-4.51" class="st0" width="7.11" height="0.5"/>
	<rect x="-15.26" y="-3.72" class="st0" width="7.11" height="0.5"/>
	<rect x="-15.26" y="-2.92" class="st0" width="7.11" height="0.5"/>
	<rect x="-15.26" y="-2.13" class="st0" width="7.11" height="0.5"/>
	<rect x="-15.26" y="-1.33" class="st0" width="6.06" height="0.5"/>
	<rect x="-15.26" y="-0.55" class="st0" width="4.58" height="0.5"/>
</g>
<g>
	<g>
		<rect x="-9.46" y="2" class="st1" width="7.47" height="4.41"/>
		<path class="st11" d="M-2.16,2.15v4.08H-9.3V2.15H-2.16 M-1.83,1.83h-0.33H-9.3h-0.33v0.33v4.08v0.32h0.33h7.15h0.32V6.23V2.15
			V1.83L-1.83,1.83z"/>
	</g>
	<polygon class="st2" points="-3.25,2.15 -7.13,6.23 -4.85,6.23 -2.16,3.41 -2.16,2.15 	"/>
	<rect x="-8.73" y="2.68" class="st2" width="2.74" height="0.76"/>
	<rect x="-8.16" y="3.77" class="st0" width="2.74" height="0.5"/>
	<rect x="-8.16" y="4.48" class="st0" width="2.74" height="0.5"/>
	<rect x="-8.16" y="5.17" class="st0" width="2.74" height="0.5"/>
</g>
<circle class="st12" cx="17.2" cy="1.66" r="0.75"/>
<circle class="st2" cx="19.32" cy="1.66" r="0.75"/>
<circle class="st13" cx="21.44" cy="1.66" r="0.75"/>
<rect x="16.45" y="3.09" class="st1" width="13" height="1.5"/>
<rect x="16.45" y="5.27" class="st1" width="13" height="8.86"/>
<rect x="17.02" y="5.92" class="st0" width="11.54" height="3.3"/>
<rect x="17.02" y="9.86" class="st0" width="3.3" height="3.69"/>
<rect x="20.93" y="9.86" class="st0" width="7.63" height="0.63"/>
<rect x="20.93" y="10.88" class="st0" width="7.63" height="0.63"/>
<rect x="20.93" y="11.9" class="st0" width="7.63" height="0.63"/>
<rect x="20.93" y="12.92" class="st0" width="7.63" height="0.63"/>
<circle class="st11" cx="7.5" cy="7.5" r="4.3"/>
<circle class="st13" cx="7.5" cy="6.44" r="1.5"/>
<path class="st13" d="M7.5,8.34c-0.53,0-1.02-0.22-1.36-0.58C5.92,8.05,5.79,8.4,5.79,8.78c0,0.94,0.76,1.08,1.71,1.08
	s1.71-0.14,1.71-1.08c0-0.38-0.13-0.73-0.34-1.02C8.52,8.12,8.03,8.34,7.5,8.34z"/>
<path class="st0" d="M14.5,15H6.96c-0.27,0-0.5-0.22-0.5-0.5V9.71c0-0.27,0.22-0.5,0.5-0.5h7.54c0.27,0,0.5,0.22,0.5,0.5v4.79
	C15,14.78,14.78,15,14.5,15z"/>
<path class="st1" d="M13.68,14.44H7.79c-0.27,0-0.5-0.22-0.5-0.5v-3.68c0-0.27,0.22-0.5,0.5-0.5h5.89c0.27,0,0.5,0.22,0.5,0.5v3.68
	C14.18,14.22,13.95,14.44,13.68,14.44z"/>
<g>
	<path class="st12" d="M9.64,11.49l-0.97,0.57l0.97,0.55l-0.21,0.34l-1.16-0.72v-0.34l1.16-0.72L9.64,11.49z"/>
	<path class="st12" d="M9.93,13.15l1.25-2.59l0.36,0.17l-1.25,2.59L9.93,13.15z"/>
	<path class="st12" d="M13.21,11.88v0.34l-1.16,0.72l-0.21-0.32l0.96-0.57l-0.96-0.55l0.21-0.34L13.21,11.88z"/>
</g>
</svg>
