<?xml version="1.0" encoding="utf-8"?>
<!-- Generator: Adobe Illustrator 23.0.2, SVG Export Plug-In . SVG Version: 6.00 Build 0)  -->
<svg version="1.1" id="Layer_1" xmlns="http://www.w3.org/2000/svg" xmlns:xlink="http://www.w3.org/1999/xlink" x="0px" y="0px"
	 viewBox="0 0 15 15" style="enable-background:new 0 0 15 15;" xml:space="preserve">
<style type="text/css">
	.st0{display:none;}
	.st1{display:inline;fill:#DEE1E6;}
	.st2{display:inline;fill:#FF6059;}
	.st3{display:inline;fill:#FFBD2E;}
	.st4{display:inline;fill:#28C941;}
	.st5{display:inline;fill:#FFFFFF;}
	.st6{display:inline;fill:#CCCCCC;}
	.st7{fill:#FFFFFF;}
	.st8{fill:#DEE1E6;}
	.st9{fill:#FFBD2E;}
	.st10{fill:#CCCCCC;}
</style>
<g class="st0">
	<path class="st1" d="M14.5,15h-14C0.22,15,0,14.78,0,14.5v-14C0,0.22,0.22,0,0.5,0h14C14.78,0,15,0.22,15,0.5v14
		C15,14.78,14.78,15,14.5,15z"/>
	<circle class="st2" cx="1.75" cy="1.5" r="0.75"/>
	<circle class="st3" cx="3.87" cy="1.5" r="0.75"/>
	<circle class="st4" cx="5.99" cy="1.5" r="0.75"/>
	<rect x="1" y="2.93" class="st5" width="13" height="1.5"/>
	<rect x="1" y="5.11" class="st5" width="13" height="8.86"/>
	<rect x="1.57" y="5.76" class="st6" width="11.54" height="3.3"/>
	<rect x="1.57" y="9.7" class="st6" width="3.3" height="3.69"/>
	<rect x="5.48" y="9.7" class="st6" width="7.63" height="0.63"/>
	<rect x="5.48" y="10.72" class="st6" width="7.63" height="0.63"/>
	<rect x="5.48" y="11.74" class="st6" width="7.63" height="0.63"/>
	<rect x="5.48" y="12.76" class="st6" width="7.63" height="0.63"/>
</g>
<g>
	<g>
		<rect x="0.2" y="0.16" class="st7" width="9.83" height="12.63"/>
		<path class="st8" d="M9.88,0.33v12.3H0.37V0.33H9.88 M10.21,0H9.88H0.37H0.05v0.33v12.3v0.33h0.33h9.51h0.33v-0.33V0.33V0L10.21,0
			z"/>
	</g>
	<polygon class="st9" points="9.88,8.46 9.88,6.06 3.63,12.63 5.91,12.63 	"/>
	<rect x="1.57" y="1.47" class="st9" width="2.74" height="0.76"/>
	<rect x="1.57" y="3.13" class="st10" width="7.11" height="0.5"/>
	<rect x="1.57" y="3.93" class="st10" width="7.11" height="0.5"/>
	<rect x="1.57" y="4.72" class="st10" width="7.11" height="0.5"/>
	<rect x="1.57" y="5.52" class="st10" width="7.11" height="0.5"/>
	<rect x="1.57" y="6.31" class="st10" width="7.11" height="0.5"/>
	<rect x="1.57" y="7.11" class="st10" width="6.06" height="0.5"/>
	<rect x="1.57" y="7.89" class="st10" width="4.58" height="0.5"/>
</g>
<g>
	<g>
		<rect x="7.37" y="10.44" class="st7" width="7.47" height="4.41"/>
		<path class="st8" d="M14.67,10.59v4.08H7.53v-4.08H14.67 M15,10.27h-0.33H7.53H7.2v0.33v4.08V15h0.33h7.15H15v-0.33v-4.08V10.27
			L15,10.27z"/>
	</g>
	<polygon class="st9" points="13.58,10.59 9.7,14.67 11.98,14.67 14.67,11.85 14.67,10.59 	"/>
	<rect x="8.1" y="11.12" class="st9" width="2.74" height="0.76"/>
	<rect x="8.67" y="12.21" class="st10" width="2.74" height="0.5"/>
	<rect x="8.67" y="12.92" class="st10" width="2.74" height="0.5"/>
	<rect x="8.67" y="13.61" class="st10" width="2.74" height="0.5"/>
</g>
</svg>
