<?xml version="1.0" encoding="utf-8"?>
<!-- Generator: Adobe Illustrator 23.0.2, SVG Export Plug-In . SVG Version: 6.00 Build 0)  -->
<svg version="1.1" id="Layer_1" xmlns="http://www.w3.org/2000/svg" xmlns:xlink="http://www.w3.org/1999/xlink" x="0px" y="0px"
	 viewBox="0 0 15 15" style="enable-background:new 0 0 15 15;" xml:space="preserve">
<style type="text/css">
	.st0{fill:#CCCCCC;}
	.st1{fill:#FFFFFF;}
	.st2{fill:#FFBD2E;}
	.st3{fill:#FFC548;}
	.st4{display:none;}
	.st5{display:inline;fill:#DEE1E6;}
	.st6{display:inline;fill:#FF6059;}
	.st7{display:inline;fill:#FFBD2E;}
	.st8{display:inline;fill:#28C941;}
	.st9{display:inline;fill:#FFFFFF;}
	.st10{display:inline;fill:#CCCCCC;}
	.st11{fill:#DEE1E6;}
	.st12{fill:#28C941;}
	.st13{fill:#FF6059;}
</style>
<path class="st0" d="M8.04,5.79H0.5C0.22,5.79,0,5.56,0,5.29V0.5C0,0.22,0.22,0,0.5,0h7.54c0.27,0,0.5,0.22,0.5,0.5v4.79
	C8.53,5.56,8.31,5.79,8.04,5.79z"/>
<path class="st1" d="M7.21,5.23H1.32c-0.27,0-0.5-0.22-0.5-0.5V1.06c0-0.27,0.22-0.5,0.5-0.5h5.89c0.27,0,0.5,0.22,0.5,0.5v3.68
	C7.71,5.01,7.49,5.23,7.21,5.23z"/>
<rect x="1.42" y="1.22" class="st2" width="2.02" height="2.52"/>
<rect x="5.27" y="1.22" class="st2" width="2.02" height="0.61"/>
<rect x="5.27" y="2.18" class="st2" width="2.02" height="0.61"/>
<rect x="5.27" y="3.14" class="st2" width="2.02" height="0.61"/>
<g>
	<line class="st2" x1="3.77" y1="2.48" x2="4.96" y2="2.48"/>
	<g>
		<g>
			<polygon class="st3" points="3.77,2.6 4.34,2.6 4.39,2.6 4.39,2.81 4.96,2.48 4.39,2.15 4.39,2.36 4.34,2.36 3.77,2.36 			"/>
		</g>
	</g>
</g>
<g class="st4">
	<path class="st5" d="M14.5,15h-14C0.22,15,0,14.78,0,14.5v-14C0,0.22,0.22,0,0.5,0h14C14.78,0,15,0.22,15,0.5v14
		C15,14.78,14.78,15,14.5,15z"/>
	<circle class="st6" cx="1.75" cy="1.5" r="0.75"/>
	<circle class="st7" cx="3.87" cy="1.5" r="0.75"/>
	<circle class="st8" cx="5.99" cy="1.5" r="0.75"/>
	<rect x="1" y="2.93" class="st9" width="13" height="1.5"/>
	<rect x="1" y="5.11" class="st9" width="13" height="8.86"/>
	<rect x="1.57" y="5.76" class="st10" width="11.54" height="3.3"/>
	<rect x="1.57" y="9.7" class="st10" width="3.3" height="3.69"/>
	<rect x="5.48" y="9.7" class="st10" width="7.63" height="0.63"/>
	<rect x="5.48" y="10.72" class="st10" width="7.63" height="0.63"/>
	<rect x="5.48" y="11.74" class="st10" width="7.63" height="0.63"/>
	<rect x="5.48" y="12.76" class="st10" width="7.63" height="0.63"/>
</g>
<circle class="st11" cx="7.5" cy="7.5" r="4.3"/>
<circle class="st12" cx="7.5" cy="6.44" r="1.5"/>
<path class="st12" d="M7.5,8.34c-0.53,0-1.02-0.22-1.36-0.58C5.92,8.05,5.79,8.4,5.79,8.78c0,0.94,0.76,1.08,1.71,1.08
	s1.71-0.14,1.71-1.08c0-0.38-0.13-0.73-0.34-1.02C8.52,8.12,8.03,8.34,7.5,8.34z"/>
<path class="st0" d="M14.5,15H6.96c-0.27,0-0.5-0.22-0.5-0.5V9.71c0-0.27,0.22-0.5,0.5-0.5h7.54c0.27,0,0.5,0.22,0.5,0.5v4.79
	C15,14.78,14.78,15,14.5,15z"/>
<path class="st1" d="M13.68,14.44H7.79c-0.27,0-0.5-0.22-0.5-0.5v-3.68c0-0.27,0.22-0.5,0.5-0.5h5.89c0.27,0,0.5,0.22,0.5,0.5v3.68
	C14.18,14.22,13.95,14.44,13.68,14.44z"/>
<g>
	<path class="st13" d="M9.64,11.49l-0.97,0.57l0.97,0.55l-0.21,0.34l-1.16-0.72v-0.34l1.16-0.72L9.64,11.49z"/>
	<path class="st13" d="M9.93,13.15l1.25-2.59l0.36,0.17l-1.25,2.59L9.93,13.15z"/>
	<path class="st13" d="M13.21,11.88v0.34l-1.16,0.72l-0.21-0.32l0.96-0.57l-0.96-0.55l0.21-0.34L13.21,11.88z"/>
</g>
</svg>
